<svg width="32" height="32" viewBox="0 0 32 32" fill="none" xmlns="http://www.w3.org/2000/svg">
<g opacity="0.24">
<path fill-rule="evenodd" clip-rule="evenodd" d="M16 29.3334C23.3638 29.3334 29.3333 23.3638 29.3333 16C29.3333 8.63622 23.3638 2.66669 16 2.66669C8.63619 2.66669 2.66666 8.63622 2.66666 16C2.66666 23.3638 8.63619 29.3334 16 29.3334Z" stroke="white" stroke-width="1.5" stroke-linecap="round" stroke-linejoin="round"/>
<path d="M16 15.3334C17.8409 15.3334 19.3333 13.841 19.3333 12C19.3333 10.1591 17.8409 8.66669 16 8.66669C14.1591 8.66669 12.6667 10.1591 12.6667 12C12.6667 13.841 14.1591 15.3334 16 15.3334Z" stroke="white" stroke-width="1.5" stroke-linejoin="round"/>
<path d="M6.68134 25.5546C6.91047 22.0804 9.80107 19.3333 13.3333 19.3333H18.6667C22.1943 19.3333 25.0819 22.0731 25.3178 25.5408" stroke="white" stroke-width="1.5" stroke-linecap="round" stroke-linejoin="round"/>
</g>
</svg>
