<svg width="24" height="24" viewBox="0 0 112 113" fill="none" xmlns="http://www.w3.org/2000/svg">
<path d="M85.5 1L102.5 3.5L94 15.5L100.5 17.5C102.326 18.328 102.157 19.0777 101.5 20.5L76.5 51.5C76.5 51.5 69 47 67 47C65 47 62.5 53 62.5 53L55.5 51C49.7557 57.4641 47.3298 58.9688 44 59L25 47C24.5267 43.1146 24.6938 41.0078 26.5 37.5C28.6476 36.7044 29.8522 36.6207 32 37.5L38.5 34.5C38.5 34.5 46 40.5 48 39C50 37.5 70.5 11.5 70.5 11.5H78L85.5 1Z" fill="white"/>
<path d="M31.5 55C31.5 55 52.5 67 54 69C54.2248 69.2997 52.7089 69.531 52.5 69.7281C52.3958 69.7609 45.2401 69.5323 39 76L31.5 71C33.3077 65.9568 33.8125 62.7899 31.5 55Z" fill="white"/>
<path d="M29.5 74.5C32.559 75.6839 33.9676 76.7978 36 79.5C35.5335 82.9128 35.6171 84.7571 36 88L10 112.5L16.5 102L14 101L23 77.5C25.8476 76.7729 27.2608 76.1008 29.5 74.5Z" fill="white"/>
</svg>
